Coordinates
version=1
nRows=19
nColumns=24
inDegrees=yes

Units are S.I. units (second, meters, Newtons, ...)
Angles are in degrees.

endheader
time	pelvis_tilt	pelvis_list	pelvis_rotation	pelvis_tx	pelvis_ty	pelvis_tz	hip_flexion_r	hip_adduction_r	hip_rotation_r	knee_angle_r	ankle_angle_r	subtalar_angle_r	mtp_angle_r	hip_flexion_l	hip_adduction_l	hip_rotation_l	knee_angle_l	ankle_angle_l	subtalar_angle_l	mtp_angle_l	lumbar_extension	lumbar_bending	lumbar_rotation
      1.16233333	      1.20924114	      0.45278185	      1.02003627	      0.09283100	      1.01589444	      0.31853141	     21.02483540	     -4.87008997	     -9.36330996	    -75.42157233	     -0.44306233	     -7.24213770	      0.60913942	     11.27489942	      1.95334536	     -5.81929125	    -15.52139464	      2.10430192	    -12.39646455	     -3.18743579	    -12.56676927	     -2.46102036	     -0.76728651
      1.16650000	      1.24022171	      0.31972026	      1.05456449	      0.09762388	      1.01693170	      0.31837075	     21.66223952	     -4.65840550	     -9.30055490	    -75.34900795	     -0.03482345	     -7.14044629	      0.59982985	     10.80263487	      1.82980525	     -5.76070675	    -15.24868402	      2.20972009	    -12.31974572	     -3.18983979	    -12.64026036	     -2.30079433	     -0.82806216
      1.17066667	      1.25341377	      0.19026451	      1.08636776	      0.10245610	      1.01794791	      0.31820373	     22.29504330	     -4.45548817	     -9.25175529	    -75.19561582	      0.33573045	     -7.10778470	      0.59236426	     10.33683444	      1.71138240	     -5.70216816	    -14.95230096	      2.30015800	    -12.25481834	     -3.19296148	    -12.68485191	     -2.13839897	     -0.88034969
      1.17483333	      1.25812114	      0.08018155	      1.12504441	      0.10731427	      1.01892724	      0.31797731	     22.91410975	     -4.29147359	     -9.22677557	    -74.96786497	      0.64553563	     -7.14257266	      0.58945599	      9.86554859	      1.62261464	     -5.61708517	    -14.62797605	      2.40018709	    -12.21153443	     -3.19455061	    -12.70542701	     -2.00326214	     -0.91786325
      1.17900000	      1.27652018	     -0.05420617	      1.13541295	      0.11209734	      1.01989275	      0.31782287	     23.50965521	     -4.08623762	     -9.18926492	    -74.67658523	      1.01737319	     -7.19668271	      0.58221889	      9.39505405	      1.49371420	     -5.59570501	    -14.32593383	      2.45348611	    -12.16410300	     -3.20041967	    -12.77089666	     -1.81941923	     -0.97567903
      1.18316667	      1.29653139	     -0.17894002	      1.14689778	      0.11693779	      1.02086021	      0.31765072	     24.07273930	     -3.89944698	     -9.17014678	    -74.30272675	      1.32571057	     -7.33167686	      0.57063800	      8.90340520	      1.37847210	     -5.56574051	    -13.99062980	      2.51846791	    -12.10723019	     -3.20776341	    -12.82373178	     -1.65654882	     -1.02543531
      1.18733333	      1.41265586	     -0.33665831	      1.13762393	      0.12182866	      1.02202037	      0.31752098	     24.48958480	     -3.67025483	     -9.16889974	    -73.80835936	      1.52227687	     -7.57658150	      0.52823999	      8.28642051	      1.21631117	     -5.59426922	    -13.61896983	      2.60681496	    -11.97296496	     -3.23108567	    -12.97516588	     -1.45494095	     -1.06598953
      1.19150000	      1.38462431	     -0.42960125	      1.16894012	      0.12670312	      1.02283788	      0.31724266	     25.05596740	     -3.55573152	     -9.20092442	    -73.31347848	      1.83573753	     -7.76543256	      0.51850688	      7.83922314	      1.14862499	     -5.53268348	    -13.26782434	      2.66199113	    -11.96686769	     -3.23669292	    -12.95933669	     -1.32941243	     -1.08606629
      1.19566667	      1.38875207	     -0.55646047	      1.18495052	      0.13151737	      1.02369617	      0.31702106	     25.56563294	     -3.38715418	     -9.23199947	    -72.72761451	      2.06719039	     -8.08136718	      0.49388602	      7.35843434	      1.03732981	     -5.49103543	    -12.90717499	      2.67725700	    -11.96925835	     -3.24911939	    -13.00924542	     -1.13796163	     -1.13466394
      1.19983333	      1.44964584	     -0.70073285	      1.21338629	      0.13642751	      1.02467335	      0.31674242	     25.96048346	     -3.22114234	     -9.31622451	    -72.02942748	      2.20190763	     -8.45654229	      0.44645844	      6.79836688	      0.90857190	     -5.45485909	    -12.52207022	      2.73073272	    -11.93412052	     -3.26960468	    -13.08655362	     -0.94473365	     -1.19862663
      1.20400000	      1.56353297	     -0.83132648	      1.26256164	      0.14130391	      1.02567998	      0.31639631	     26.26893553	     -3.09063258	     -9.43175933	    -71.27667680	      2.42414632	     -8.80571859	      0.35235212	      6.18350292	      0.79651438	     -5.41459382	    -12.13359885	      2.79186191	    -11.85604453	     -3.30751421	    -13.24685529	     -0.73721017	     -1.25555899
      1.20816667	      1.54013352	     -0.93380847	      1.28157673	      0.14618982	      1.02639237	      0.31610647	     26.72301744	     -2.98029879	     -9.51111610	    -70.49026056	      2.58979170	     -9.16650879	      0.30005027	      5.71850349	      0.71852779	     -5.37604854	    -11.75219159	      2.80835544	    -11.88865550	     -3.32678796	    -13.23732170	     -0.57447897	     -1.30936726
      1.21233333	      1.62952881	     -1.07148990	      1.35435442	      0.15107527	      1.02729167	      0.31572793	     26.99537776	     -2.86206744	     -9.67865878	    -69.59479997	      2.76345389	     -9.56774536	      0.17399512	      5.13652225	      0.60048732	     -5.30888817	    -11.37289863	      2.86442584	    -11.83263875	     -3.36851710	    -13.36586467	     -0.36512245	     -1.39361666
      1.21650000	      1.55754038	     -1.14027207	      1.36884741	      0.15596400	      1.02781006	      0.31547855	     27.45595554	     -2.79230733	     -9.76272873	    -68.70606535	      2.98862339	     -9.91033281	      0.13860101	      4.73008370	      0.55601531	     -5.28838314	    -11.00300927	      2.86198962	    -11.87434118	     -3.38003242	    -13.30079961	     -0.25279685	     -1.44232894
      1.22066667	      1.67241035	     -1.28747944	      1.46142010	      0.16084568	      1.02869017	      0.31504344	     27.63368789	     -2.68243762	     -9.97849996	    -67.65593589	      3.04620201	    -10.37040482	     -0.01493199	      4.12264449	      0.43048428	     -5.19920729	    -10.62250048	      2.93293305	    -11.82603433	     -3.42235639	    -13.46308653	     -0.01128338	     -1.55007514
      1.22483333	      1.58387359	     -1.34929469	      1.47291353	      0.16576427	      1.02910084	      0.31482513	     28.05163206	     -2.62182152	    -10.07600699	    -66.63498037	      3.23227937	    -10.69082466	     -0.06056452	      3.73389450	      0.39156489	     -5.19186815	    -10.25515030	      2.92185667	    -11.87786678	     -3.43536304	    -13.37258536	      0.09323831	     -1.60289632
      1.22900000	      1.61224464	     -1.46017429	      1.54355454	      0.17064391	      1.02971712	      0.31447697	     28.28332911	     -2.53983627	    -10.26633212	    -65.48395457	      3.22076022	    -11.12539793	     -0.18734853	      3.22359419	      0.30344165	     -5.10073870	     -9.88684714	      2.98607441	    -11.88408564	     -3.46581384	    -13.43853762	      0.27698904	     -1.69840651
      1.23316667	      1.63328831	     -1.55071004	      1.59954031	      0.17556012	      1.03025743	      0.31416989	     28.49446599	     -2.47289205	    -10.44165275	    -64.28741592	      3.31366781	    -11.46070783	     -0.32003226	      2.72120211	      0.23304194	     -5.05750065	     -9.52181588	      3.00941919	    -11.90178711	     -3.49809458	    -13.48097682	      0.43897874	     -1.79048127
      1.23733333	      1.56972220	     -1.59058034	      1.63141837	      0.18047459	      1.03055401	      0.31396549	     28.79075471	     -2.44414524	    -10.57465425	    -63.07994255	      3.48265713	    -11.73344681	     -0.38733783	      2.32025688	      0.21291480	     -5.05085075	     -9.18258914	      3.01326022	    -11.92458581	     -3.51446636	    -13.42082740	      0.52345795	     -1.84156893
